<svg xmlns="http://www.w3.org/2000/svg" width="524" height="640" viewBox="0 0 524 640">
  <defs>
    <style>
      .cls-1 {
        fill: #30495a;
      }

      .cls-1, .cls-2 {
        fill-rule: evenodd;
      }

      .cls-2, .cls-3 {
        fill: #dfdfdf;
      }
    </style>
  </defs>
  <path id="Rectangle_1_copy_4" data-name="Rectangle 1 copy 4" class="cls-1" d="M510,98.067S385.962,18,261.694,18C136.963,18,12,98.067,12,98.067V623H510V98.067Z"/>
  <path id="Rectangle_1_copy_4-2" data-name="Rectangle 1 copy 4" class="cls-2" d="M-2,640V86S129.989,1.5,261.733,1.5C392.988,1.5,524,86,524,86V640H-2ZM510,98.067S385.962,18,261.694,18C136.963,18,12,98.067,12,98.067V623H510V98.067Z"/>
  <path class="cls-2" d="M190,420S90,337,132,157c-18.717-9.641-47-10.667-51-18,13.667-14,39.667-31.333,89-28,35.667-25.333,94.667-40,121-40,39,0,79,22,95,41,20,20.333,19.333,26.667,25,43s5,31,17,43c11.333,11.333,20.667,18.333,9,32-31.333-1-58-12.667-91-15,2.333,17.333,7,52.333,5,67-13-38-31-62-52-74-19.667,55-46.667,102.667-87,118,29.667-51.667,31.667-87.333,30-114-25.167,5.833-66.5,21-74,90S182.5,398.5,190,420ZM357,165s10.25-7.75,26,12c3.5,1.5-14,1.75-16-5C362,166.5,361,166.5,357,165Z"/>
  <rect id="Rectangle_1_copy_5" data-name="Rectangle 1 copy 5" class="cls-3" x="34" y="464" width="455" height="143"/>
  <path id="NETWORKING" class="cls-1" d="M70.649,555.435v-13c0-7.042-.128-13.123-0.386-18.821l0.193-.064a159.905,159.905,0,0,0,7.52,15.236l9.255,16.645H97.515V512.287h-9V524.9a159.483,159.483,0,0,0,.836,17.988H89.159a124.875,124.875,0,0,0-7.07-14.787l-9-15.813H61.651v43.148h9Zm61.11-26.183H115.82V520.29h16.9v-8H105.986v43.148h27.637v-8h-17.8V537.19h15.939v-7.938Zm17.215,26.183h9.834V520.482h11.826v-8.195H137.341v8.195h11.633v34.953Zm46.4,0,4.113-18.565c1.029-4.353,1.736-8.45,2.507-13.316h0.128c0.514,4.93,1.221,8.963,2.057,13.316l3.664,18.565h10.605l11.183-43.148h-9.962l-3.535,17.669c-0.9,5.121-1.864,10.179-2.507,14.98h-0.128c-0.643-4.8-1.35-9.411-2.314-14.468l-3.471-18.181H197.3l-3.664,17.669c-1.092,5.313-2.121,10.5-2.828,15.172h-0.128c-0.707-4.353-1.607-9.923-2.571-15.044l-3.278-17.8H174.352l10.283,43.148h10.734Zm57.894-43.852c-12.791,0-21.082,9.667-21.082,22.6,0,12.291,7.52,21.958,20.375,21.958,12.661,0,21.274-8.578,21.274-22.726C273.83,521.506,266.567,511.583,253.263,511.583Zm-0.257,7.746c6.748,0,10.476,6.658,10.476,14.4,0,8.386-3.792,14.66-10.412,14.66-6.556,0-10.541-5.954-10.541-14.4C242.529,525.6,246.386,519.329,253.006,519.329Zm27.239,36.106h9.7V538.47h2.956c3.985,0.064,5.849,1.537,7.006,6.914,1.286,5.313,2.314,8.834,3.021,10.051h10.026c-0.835-1.665-2.185-7.3-3.535-12.163-1.092-3.97-2.763-6.85-5.784-8.067v-0.192a11.453,11.453,0,0,0,7.648-10.626,10.937,10.937,0,0,0-3.985-9.027c-3.085-2.432-7.584-3.393-14.011-3.393a86.278,86.278,0,0,0-13.047.9v42.571Zm9.7-35.914a24.56,24.56,0,0,1,4.435-.32c4.5,0.064,7.2,2.049,7.2,6.018,0,3.777-2.892,6.209-7.777,6.209H289.95V519.521Zm28.4,35.914h9.7V541.351l3.727-4.545,10.605,18.629h11.441l-15.1-24.775,14.333-18.373H341.036l-9.834,14.34c-0.964,1.537-1.992,3.073-2.957,4.737h-0.192V512.287h-9.7v43.148ZM357.8,512.287v43.148h9.834V512.287H357.8Zm27.311,43.148v-13c0-7.042-.129-13.123-0.386-18.821l0.193-.064a159.882,159.882,0,0,0,7.52,15.236l9.255,16.645h10.283V512.287h-9V524.9a159.409,159.409,0,0,0,.836,17.988h-0.193a124.828,124.828,0,0,0-7.07-14.787l-9-15.813H376.112v43.148h9Zm71.522-24.711H440.5v7.618h6.684v9.027a13.167,13.167,0,0,1-4.82.64c-8.034,0-13.626-5.25-13.626-14.148,0-9.346,6.17-13.956,14.333-13.956a24.091,24.091,0,0,1,10.091,1.857l2.056-7.81c-2.121-1.024-6.427-2.113-12.019-2.113-14.2,0-24.68,8.194-24.745,22.534-0.064,6.338,2.121,11.971,6.106,15.684,3.985,3.841,9.706,5.826,17.611,5.826a48.66,48.66,0,0,0,14.461-2.433V530.724Z"/>
</svg>
