<svg xmlns="http://www.w3.org/2000/svg" width="526" height="638" viewBox="0 0 526 638">
  <defs>
    <style>
      .cls-1 {
        fill: #30495a;
      }

      .cls-1, .cls-2 {
        fill-rule: evenodd;
      }

      .cls-2 {
        fill: #dfdfdf;
      }
    </style>
  </defs>
  <path id="Rectangle_1_copy_4" data-name="Rectangle 1 copy 4" class="cls-1" d="M512,96.067S387.962,16,263.694,16C138.963,16,14,96.067,14,96.067V621H512V96.067Z"/>
  <path class="cls-2" d="M0,638V84S131.989-.5,263.733-0.5C394.988-.5,526,84,526,84V638H0ZM512,96.067S387.962,16,263.694,16C138.963,16,14,96.067,14,96.067V621H512V96.067ZM36,605V462H491V605H36Zm81.5-96.742H103.714L98.727,523.71C97.2,528.883,95.611,535.022,94.3,540.4H94.087c-1.039-5.45-2.493-11.244-3.948-16.624l-4.571-15.521H71.51l-2.978,46.493H78.3l0.831-17.659c0.346-5.794.554-12.968,0.831-19.246H80.1c1.108,6.071,2.7,12.693,4.225,18.142l4.986,18H97.55l5.679-18.142c1.8-5.449,3.74-12.071,5.194-18h0.208c0,6.76.208,13.52,0.415,19.108l0.693,17.8h10.319Zm48.769,0H155.739v26.764c0,8.209-3.048,12.072-8.588,12.072-5.4,0-8.449-4.07-8.449-12.072V508.258h-10.6V534.2c0,14.83,6.925,21.315,18.7,21.315,12.189,0,19.46-6.829,19.46-21.177V508.258Zm19.749,0h-10.6v46.493h29.157v-8.83H186.014V508.258Zm49.94,0H200.08v8.83h12.535v37.663h10.6V517.088h12.743v-8.83Zm16.214,0h-10.6v46.493h10.6V508.258Zm57.071,0H295.457l-4.986,15.452c-1.524,5.173-3.117,11.312-4.433,16.693h-0.207c-1.039-5.45-2.494-11.244-3.948-16.624l-4.571-15.521H263.253l-2.978,46.493h9.765l0.831-17.659c0.347-5.794.554-12.968,0.832-19.246h0.138c1.108,6.071,2.7,12.693,4.225,18.142l4.986,18h8.241l5.679-18.142c1.8-5.449,3.74-12.071,5.195-18h0.207c0,6.76.208,13.52,0.416,19.108l0.692,17.8H311.8Zm40.459,37.87H330.514V535.091H347.69v-8.553H330.514v-9.657h18.214v-8.623h-28.81v46.493H349.7v-8.623Zm40.593-33.248c-4.5-3.38-10.25-4.967-19.115-4.967a94.574,94.574,0,0,0-14.267.966v45.665a91.746,91.746,0,0,0,11.982.69c9.141,0,16.621-1.932,21.538-6,4.5-3.794,7.757-9.933,7.757-18.831C398.186,522.192,395.138,516.467,390.291,512.88Zm25.428-4.622h-10.6v46.493h10.6V508.258Zm33.87,0H435.738l-14.267,46.493h10.943l3.324-11.934H449.1l3.6,11.934h11.357Zm-9.557,16.831c0.762-2.69,1.454-6.208,2.147-8.967h0.138c0.693,2.759,1.524,6.208,2.355,8.967l2.909,9.864H437.262Zm-68.856,21.936a19.485,19.485,0,0,1-3.67-.207V516.4a22.016,22.016,0,0,1,4.778-.414c9.073,0,14.752,5.105,14.682,14.762C386.966,541.851,380.733,547.094,371.176,547.025ZM483.835,329.4c-9.741,43.824-45.43,54-69.175,56.135-20.979,1.885-46.177-2.421-58.878-9.15-78.805-41.748-47.629-104.644-55-139.18-3.859-18.072,14.367-2.41,27.707,20,12.536,21.061,20.126,48.444,20.126,48.444s34.161,32.062,71.085,18.309,33.366-49.417,33.366-49.417,14.066,41.07-35.042,58.719-78.183-8.4-78.183-8.4c5.54,31.336,45.786,50.384,96.219,35.746,34.793-10.072,39.532-37.958,41.894-49.644,6.412-31.727-10.96-66.625-10.96-66.625S493.6,285.458,483.835,329.4ZM281.58,307.82c3.343,26.577,13.17,47.815,28.641,61.582A67.635,67.635,0,0,0,336.2,383.8c63.237,18.758-71.584,44.2-71.584,44.2s-134.873-23.959-70.8-44.8a67.34,67.34,0,0,0,24.34-13.993c15.375-13.793,25.144-35.022,28.474-61.57C254.6,244.078,226.6,164.361,226.6,137.5c0-11.186,7.273-34.5,36.146-34.5s38.894,22.483,38.894,34.962C301.64,164.776,273.6,244.363,281.58,307.82Zm4.841-162.068c-0.983-.99-8.946,2.341-15.318,5.242-4.437,2.02-.9,18.351-6.3,18.351s-4.06-16.121-7.068-18.011c-5.224-3.284-12.709-7.438-14.552-5.582C237.777,151.2,259.4,216.531,263,216.531S290.024,149.382,286.421,145.752ZM227.27,236.925c-7.376,34.59,23.809,97.585-55.017,139.4-12.7,6.739-37.91,11.052-58.894,9.164-23.751-2.137-59.45-12.331-69.193-56.224-9.771-44.015,16.847-85.192,16.847-85.192S43.636,279.026,50.05,310.8c2.362,11.7,7.1,39.634,41.9,49.723,50.447,14.661,90.7-4.417,96.245-35.8,0,0-29.083,26.086-78.2,8.409s-35.051-58.811-35.051-58.811-3.559,35.719,33.375,49.494,71.1-18.337,71.1-18.337,7.593-27.426,20.132-48.52C212.9,234.511,231.129,218.824,227.27,236.925Z"/>
</svg>
