<svg xmlns="http://www.w3.org/2000/svg" width="526" height="638" viewBox="0 0 526 638">
  <defs>
    <style>
      .cls-1 {
        fill: #30495a;
      }

      .cls-1, .cls-2 {
        fill-rule: evenodd;
      }

      .cls-2 {
        fill: #dfdfdf;
      }
    </style>
  </defs>
  <path id="Rectangle_1_copy_4" data-name="Rectangle 1 copy 4" class="cls-1" d="M512,96.067S387.962,16,263.694,16C138.963,16,14,96.067,14,96.067V621H512V96.067Z"/>
  <path id="Shape_7_copy_4" data-name="Shape 7 copy 4" class="cls-2" d="M0,84S131.989-.5,263.733-0.5C394.988-.5,526,84,526,84V638H0V84ZM14,96.8S138.712,17,263.193,17C387.211,17,511,96.8,511,96.8V620H14V96.8ZM36,462H491V605H36V462Zm23.295,90.9h9.826V537.385a25.2,25.2,0,0,0,3.384.193c5.856,0,10.867-1.416,14.251-4.571a13.79,13.79,0,0,0,4.034-10.3A12.635,12.635,0,0,0,86.1,512.662c-2.928-2.317-7.288-3.476-13.4-3.476a82.055,82.055,0,0,0-13.4.9V552.9Zm9.826-35.925a17.082,17.082,0,0,1,4.1-.386c4.945,0,7.743,2.382,7.743,6.373,0,4.443-3.254,7.082-8.524,7.082a15.332,15.332,0,0,1-3.319-.257V516.976ZM97.11,552.9h9.826V535.84h2.994c4.034,0.064,5.921,1.545,7.092,6.953,1.3,5.343,2.343,8.884,3.059,10.108h10.151c-0.846-1.674-2.212-7.34-3.579-12.233-1.106-3.991-2.8-6.889-5.856-8.112v-0.193a11.528,11.528,0,0,0,7.743-10.687,10.965,10.965,0,0,0-4.034-9.078c-3.124-2.447-7.679-3.412-14.186-3.412a88.077,88.077,0,0,0-13.21.9V552.9Zm9.826-36.118a25,25,0,0,1,4.49-.322c4.555,0.064,7.288,2.06,7.288,6.052,0,3.8-2.928,6.245-7.873,6.245h-3.9V516.783Zm47.837-7.984c-12.949,0-21.344,9.722-21.344,22.727,0,12.361,7.614,22.083,20.628,22.083,12.819,0,21.539-8.627,21.539-22.855C175.6,518.779,168.243,508.8,154.773,508.8Zm-0.26,7.791c6.832,0,10.606,6.695,10.606,14.485,0,8.434-3.839,14.744-10.541,14.744-6.638,0-10.672-5.988-10.672-14.486C143.906,522.9,147.81,516.59,154.513,516.59Zm64.237,11.459H202.417v7.662h6.767v9.078a13.423,13.423,0,0,1-4.88.643c-8.134,0-13.8-5.279-13.8-14.228,0-9.4,6.247-14.035,14.511-14.035a24.53,24.53,0,0,1,10.216,1.867l2.082-7.854c-2.147-1.031-6.507-2.125-12.168-2.125-14.381,0-24.988,8.241-25.053,22.662-0.065,6.374,2.147,12.04,6.182,15.774,4.034,3.863,9.826,5.858,17.83,5.858a49.566,49.566,0,0,0,14.641-2.446V528.049ZM226.5,552.9h9.826V535.84h2.993c4.034,0.064,5.921,1.545,7.093,6.953,1.3,5.343,2.342,8.884,3.058,10.108h10.151c-0.845-1.674-2.212-7.34-3.579-12.233-1.106-3.991-2.8-6.889-5.856-8.112v-0.193a11.529,11.529,0,0,0,7.744-10.687A10.966,10.966,0,0,0,253.9,512.6c-3.123-2.447-7.678-3.412-14.186-3.412a88.072,88.072,0,0,0-13.209.9V552.9Zm9.826-36.118a24.981,24.981,0,0,1,4.49-.322c4.555,0.064,7.288,2.06,7.288,6.052,0,3.8-2.929,6.245-7.874,6.245h-3.9V516.783Zm52.13,24.98,3.384,11.138h10.672l-13.6-43.393H275.9L262.5,552.9h10.281l3.123-11.138H288.46Zm-11.127-7.34,2.6-9.206c0.716-2.511,1.366-5.795,2.017-8.37h0.13c0.651,2.575,1.432,5.794,2.213,8.37l2.733,9.206h-9.7ZM346.124,552.9h9.7l-2.408-43.393H340.463l-4.685,14.421c-1.432,4.829-2.929,10.559-4.165,15.58h-0.195c-0.976-5.086-2.343-10.494-3.709-15.516l-4.3-14.485H310.2l-2.8,43.393h9.175l0.781-16.482c0.325-5.408.521-12.1,0.781-17.962h0.13c1.041,5.665,2.538,11.846,3.969,16.932l4.686,16.8h7.743l5.336-16.932c1.692-5.086,3.514-11.267,4.881-16.8h0.2c0,6.309.195,12.618,0.39,17.833Zm17.322-43.393V552.9H373.4V509.508h-9.956Zm27.66,43.393v-13.07c0-7.082-.131-13.2-0.391-18.928l0.2-.064a160.685,160.685,0,0,0,7.614,15.323l9.37,16.739h10.412V509.508H409.2v12.683a159.516,159.516,0,0,0,.845,18.091h-0.195a125.17,125.17,0,0,0-7.158-14.872l-9.11-15.9H382V552.9h9.111Zm72.435-24.852H447.208v7.662h6.767v9.078a13.423,13.423,0,0,1-4.88.643c-8.134,0-13.8-5.279-13.8-14.228,0-9.4,6.246-14.035,14.511-14.035a24.53,24.53,0,0,1,10.216,1.867l2.082-7.854c-2.147-1.031-6.507-2.125-12.168-2.125-14.381,0-24.988,8.241-25.053,22.662-0.065,6.374,2.147,12.04,6.182,15.774,4.034,3.863,9.826,5.858,17.83,5.858a49.566,49.566,0,0,0,14.641-2.446V528.049Zm-61-183.477c-3.3-2.849,14.019-12.258,8.5-21.59s-44.176-27.683-37.424-29.466S418.373,305.6,434.6,320.482C450.425,335,405.837,347.421,402.538,344.572Zm1-160.39c-20.17-19.581-60.223-55.529-88.42-59.751-22.407-3.356-21.221,52.721-21.221,52.721s-2.358-24.017,0-33.39,1.667-20.4,14.147-24.6c16.924-5.705,45.509,12.051,58.357,19.331,23.613,13.378,49.77,33,60.126,42.177,6.042,5.355,5.38,12.8,1.768,15.816C419.141,204.138,413.429,193.782,403.54,184.182ZM293.917,237.461c9.879,19.445,25.684,16.528,39.514,15.556a12.559,12.559,0,0,0,2.642-.479,213.382,213.382,0,0,1,1.075,24.116c0,27.185-22.807,59.811-46.165,76.075a44,44,0,0,1,4.455,5.662c7.7,11.831-13.987,21.95-15.591,19.628s6.818-9.987,4.134-17.591a13.487,13.487,0,0,0-1.343-2.619C276.28,361.115,270.08,363,264.5,363c-5.951,0-12.683-2.181-19.6-5.958a14.44,14.44,0,0,0-1.651,3.069c-2.71,7.592,5.8,15.247,4.175,17.565s-23.52-7.786-15.745-19.6a45.078,45.078,0,0,1,5.01-6.193c-23.535-16.685-46.6-49.043-46.6-75.23a182.561,182.561,0,0,1,1.311-24.028,12.853,12.853,0,0,0,2.406.391c13.829,0.972,29.635,3.889,39.513-15.556,7.816-15.384-1.255-35.2-1.255-35.2s18.107-12.844,30.982-12.844S296.169,201.9,296.169,201.9,285.869,221.62,293.917,237.461Zm-80.8-112.352c-28.253,4.234-68.387,40.279-88.6,59.913-9.909,9.627-15.632,20.011-24.807,12.335-3.619-3.028-4.282-10.489,1.772-15.859,10.377-9.2,36.587-28.878,60.246-42.292,12.874-7.3,41.517-25.1,58.474-19.384,12.505,4.219,11.813,15.272,14.175,24.671s0,33.48,0,33.48S235.564,121.744,213.112,125.109ZM152.819,293.163c6.8,1.8-32.122,20.271-37.677,29.668s11.881,18.87,8.559,21.739-48.21-9.637-32.275-24.256C107.76,305.33,146.021,291.368,152.819,293.163Zm55.9-90.852c12.447,0,28.45,12.152,19.559,29.514s-23.115,14.757-35.562,13.889-10.668-18.23-7.112-26.042S196.27,202.311,208.716,202.311ZM191.3,346.11c4.331,1.554-20.466,17.555-24,25.692s7.569,16.341,5.453,18.825-30.717-8.345-20.564-21C162.59,356.646,186.968,344.555,191.3,346.11Zm107.65-114.285c-8.89-17.362,7.113-29.514,19.559-29.514s19.56,9.548,23.116,17.361,5.334,25.174-7.113,26.042S307.84,249.186,298.949,231.825Zm33.029,114.59c4.3-1.543,28.516,10.465,38.853,23.353,10.085,12.574-18.323,23.329-20.426,20.862s8.933-10.616,5.417-18.7S327.675,347.959,331.978,346.415Z"/>
</svg>
